<?xml version="1.0" encoding="UTF-8" standalone="no"?><svg xmlns="http://www.w3.org/2000/svg" xmlns:xlink="http://www.w3.org/1999/xlink" fill="#000000" height="279" preserveAspectRatio="xMidYMid meet" version="1" viewBox="0.0 0.1 810.7 279.0" width="810.7" zoomAndPan="magnify"><g id="change1_1"><path d="m30.3,237.6c1.1,1.4,1.9-.2,2.3-.2-2.3-2-2.6.5-2.3.2Z" fill="#000000"/></g><g id="change1_2"><path d="M7.4 217.8L8.2 217.8 6.2 216.7 0 226.1 2.5 226 0 225.8 6 216.9 7.4 217.8z" fill="#000000"/></g><g id="change1_3"><path d="m25.3,234.6c-1.7-3.6-9.9-2.8-14.4-5.3l-.6-.9-2.9,1.5c5.9,1.6,14,2.6,17.8,4.7Z" fill="#000000"/></g><g id="change1_4"><path d="m38.1,244.8c-.6-1.3,3.4,0-3.3-1.3.3.2.4.3.5.5.6.2,1.4.4,2.8.9Z" fill="#000000"/></g><g id="change1_5"><path d="m35.3,243.9c-2.9-.8,1.6,1.4,0,0h0Z" fill="#000000"/></g><g id="change1_6"><path d="m48.8,247.2l-4.1-.2c.6.9,4,2,2.6,2.1,4,.6,3.4-.2,1.5-1.9Z" fill="#000000"/></g><g id="change1_7"><path d="m52.9,246.2c-.7,0-1.4,0-2.1-.1.3.4.8.6,2.1.1Z" fill="#000000"/></g><g id="change1_8"><path d="m46.4,245.7l4.4.4c-.4-.6-.2-1.5-2-.3.6-.7-.5-.2-2.4-.1Z" fill="#000000"/></g><g id="change1_9"><path d="m44.2,244.6c-2-1.2-4.6-2.4-.5-2.2-7.3-1.7-6.8.5.5,2.2Z" fill="#000000"/></g><g id="change1_10"><path d="m27.6,232.2c-.9-.5-1.7-1.1-2.5-1.7h-2.7c1.3,0,5.1,2.6,5.2,1.7Z" fill="#000000"/></g><g id="change1_11"><path d="m72.2,254.9c.4-.5-.9-1.9-1-2.7h-3c1.3.7,4,1.8,4,2.7Z" fill="#000000"/></g><g id="change1_12"><path d="m71.2,252.2h4.5c-3.7-1-4.5-.7-4.5,0Z" fill="#000000"/></g><g id="change1_13"><path d="m54.4,243.3c-2.5.1-5,.1-7.5.2h4.4c1.5.2,2.9.1,4.4.1l-1.3-.3Z" fill="#000000"/></g><g id="change1_14"><path d="M88.5 258.8L85.7 259.6 90.5 258.5 88.5 258.8z" fill="#000000"/></g><g id="change1_15"><path d="m99.3,261c-2,.7,2,2.5,0,2.8,1.5.2,2.9.2,4.3.1,1.4-.1,2.7-.4,3.9-.6-1.3,0-2.5-.1-3.9-.5-1.3-.4-2.7-1-4.3-1.8Z" fill="#000000"/></g><g id="change1_16"><path d="m111.6,262.7c-1.3,0-2.6.3-4.1.6,1.3,0,2.7-.2,4.1-.6Z" fill="#000000"/></g><g id="change1_17"><path d="m82.8,254.2c.2.4.7,1.5,3,2.4l-1.3-2c-.5-.1-1.1-.3-1.7-.4Z" fill="#000000"/></g><g id="change1_18"><path d="m84.5,254.6h0c1.8.5,3.1.8,3.6,1-.5-.1-1.6-.4-3.6-1Z" fill="#000000"/></g><g id="change1_19"><path d="m82.4,254.1c.2,0,.3,0,.4.1-.1-.2-.2-.3-.4-.1Z" fill="#000000"/></g><g id="change1_20"><path d="m65.1,247.7c2.7-.3,8.1,0,3.5-2.6-2.1.7.6,2.2-3.5,2.6Z" fill="#000000"/></g><g id="change1_21"><path d="m80.8,251.6c-1.5-.5-2.9-.9-4.4-1.5,0,.5.6,1.3-.7,1.5h2.5s2.6,0,2.6,0Z" fill="#000000"/></g><g id="change1_22"><path d="M83.2 251.5L80.8 251.6 82.5 252.1 83.2 251.5z" fill="#000000"/></g><g id="change1_23"><path d="m104.1,259.6c2.1-.3,4.3,0,6.7.3-2.5-.8-5.2-1.5-7.7-2-.5.4-1.8,1.1,1,1.7Z" fill="#000000"/></g><g id="change1_24"><path d="m94.6,257c.1,0,.3,0,.5,0-.2-.2-.4-.3-.5,0Z" fill="#000000"/></g><g id="change1_25"><path d="m134.7,264.4c-.1-.1-.2-.2-.3-.4,0,0,0,.2-.1.3h.5Z" fill="#000000"/></g><g id="change1_26"><path d="m102.7,257.5c-1.9-.8-3.1-.6-4.3-.3,1.5.2,3,.4,4.7.8.2-.2.3-.4-.4-.4Z" fill="#000000"/></g><g id="change1_27"><path d="m118.4,263.2c-1-.5-2.1-1.1-3.2-1.6.9.7,2.8,1.9,3.2,1.6Z" fill="#000000"/></g><g id="change1_28"><path d="m95.6,257.6c-.1,0-.2,0-.3,0,.6.5.5.3.3,0Z" fill="#000000"/></g><g id="change1_29"><path d="m95.6,257.6c1.1,0,1.9-.3,2.8-.4-1.2-.1-2.3-.2-3.4-.2.2.2.4.4.6.6Z" fill="#000000"/></g><g id="change1_30"><path d="m143.7,254.7c-.6,1.5-5.9,2.2-10.1-.2-2.3.2-2.9,1.7-2.6,3.6.2,1,.6,2,1.2,3,.6,1,1.3,2,2.2,2.9.3-.7.4-1.3,5-1.5-1.4-1.1-9.6-3.5-5.6-4.4,6.1.1,4.8,1.3,7.5,2.6-2.1-2.3,8-1.7,7.2-4.7l-5.3.2c0-.5,2-.9.6-1.5Z" fill="#000000"/></g><g id="change1_31"><path d="m125.8,262.4l-1.9-.2c2.1.7,3.5,1.6,6,3.3,3.2-.2,4-.7,4.3-1.2-3-.5-6.1-1.2-9.1-1.9h.7Z" fill="#000000"/></g><g id="change1_32"><path d="m115.7,260.6c1.8-1.4,6.3-1.3,4-3.6-5.4-.9-4.1.7-7.4.8,8.8,1.2-2.7.5,3.4,2.6-1.8,0-3.3-.2-4.8-.5,1.5.5,3,1,4.4,1.6,0,0-.1,0-.2-.1h0s0,0,0,0c-.3-.3-.4-.4,0-.2,0,0,.1,0,.2,0,.1-.2.3-.4.5-.6,2.5.8.3.5-.5.6,0,0-.1.1-.2.2,0,0,0,0,0,0l8.9.7c-1.8-.6-4.1-1-8.3-1.6Z" fill="#000000"/></g><g id="change1_33"><path d="m74,242.6c.2.2.2.3.2.5.6,0,.8-.1-.2-.5Z" fill="#000000"/></g><g id="change1_34"><path d="m77.3,244.5c-.7,0-1.4.6-3.3,0-1.6-1,.2-.8.3-1.4-1.3.1-4.6,0-.9,1.9h.7c1.7.7,3.5,1.8,4.8,2.8,1.3,1,2.2,1.8,1.8,1.8-.7-1.7-1.3-3-3.2-5.1Z" fill="#000000"/></g><g id="change1_35"><path d="m96.7,252.4l7.4.8-3.4-2.3v.9c-4-1.3-3.4,0-4,.6Z" fill="#000000"/></g><g id="change1_36"><path d="M135.4 265.4L134.2 267 138.8 265.2 135.4 265.4z" fill="#000000"/></g><g id="change1_37"><path d="M145 266.7L144.4 268.2 147.1 267.6 145 266.7z" fill="#000000"/></g><g id="change1_38"><path d="m653.9,135.5l1.5-1.6c-.7.7-1.2,1.2-1.5,1.6Z" fill="#000000"/></g><g id="change1_39"><path d="m641.3,144.3v.9c.5-.8.5-1.2,0-.9Z" fill="#000000"/></g><g id="change1_40"><path d="m381.8,267c3.4.9,7.3,2.6,6.6.9l-1.3-1.5c-2.1.7-3.9.8-5.4.7Z" fill="#000000"/></g><g id="change1_41"><path d="m534.2,213c-.3,0-.7,0-1-.1-.5.8-.9,1.6-1.3,2.3.7-.7,1.5-1.4,2.4-2.2Z" fill="#000000"/></g><g id="change1_42"><path d="m533.4,205.5l4.2-.6c-1,0-2.4.2-4.2.6Z" fill="#000000"/></g><g id="change1_43"><path d="m717.2,80.5l.5-3c-2.7,2.7-.9,2.2-.5,3Z" fill="#000000"/></g><g id="change1_44"><path d="m243.6,275.2c2.7.7,4.9,1,6.8,1.2-3.3-1-5.9-2.6-6.8-1.2Z" fill="#000000"/></g><g id="change1_45"><path d="m659.6,154.1c.9-1,1.2-1.7.9-1.9-1,1-1.4,1.8-.9,1.9Z" fill="#000000"/></g><g id="change1_46"><path d="m258.4,276.5c-.5-.2-1-.3-1.4-.4-2,.3-4,.5-6.5.3,2.4.8,5.2,1.3,7.9.1Z" fill="#000000"/></g><g id="change1_47"><path d="m792.9,45.8c-.1.4-.3.8-.4,1.1.2,0,.3-.4.4-1.1Z" fill="#000000"/></g><g id="change1_48"><path d="m750.8,130.8c.2-.9.7-2.2,1.2-3.5-.3.6-.7,1.6-1.2,3.5Z" fill="#000000"/></g><g id="change1_49"><path d="m183.5,272.6c-2.1-.1-.3.2,0,0h0Z" fill="#000000"/></g><g id="change1_50"><path d="m174.4,264.5c.5-.1.8-.3.9-.7-.2.4-.5.6-.9.7Z" fill="#000000"/></g><g id="change1_51"><path d="m278.7,265.7c0,0,.1,0,.2,0-.6-.3-.5-.3-.2,0Z" fill="#000000"/></g><g id="change1_52"><path d="m180.5,271.4c.7.3,1.6.6,2.5.8-.4-.2-1.2-.4-2.5-.8Z" fill="#000000"/></g><g id="change1_53"><path d="m180.9,272.3c-.7-.2-1.2-.3-1.8-.4-.3.3,0,.5,1.8.4Z" fill="#000000"/></g><g id="change1_54"><path d="m186.4,272.8c-1.2,0-2.2-.3-3.3-.6.4.2.5.3.4.3.6,0,1.4.1,2.9.2Z" fill="#000000"/></g><g id="change1_55"><path d="m745.3,45c-.1,0-.3,0-.5,0-1.5,1.6-.8,1.1.5,0Z" fill="#000000"/></g><g id="change1_56"><path d="m430,239.1c0,0-.1,0-.2.1,0,0,.2,0,.3,0h0Z" fill="#000000"/></g><g id="change1_57"><path d="m436.7,236.2c-2.4,2.8-4.2,3-6.6,3.1l3.5,4.3,3.1-7.4Z" fill="#000000"/></g><g id="change1_58"><path d="m682.8,112.7l-4.9,2c3.1-5.8,7-7.9,2-6.6.7,1.2.2,2.5-1,4-1.2,1.5-3,3.1-4.9,4.6-3.7,3.1-7.5,6.2-6.1,8.6l-3.3,1.1c.8-.5.7-.9,1.5-1.4-6.7,1.8-1.5,6-8.6,10.4-2.6,1.3-4.7,1.9-3.5.2l-4.5,4.8c-1.6,1-1.8,0-.2-1-2.6,2-5.2,4-7.9,6v-.2c-.7,1.5-2.6,4.4-3.6,5.7-2.5.8.7-1.2-.2-1.4-1.3,1.4-2.6,2.7-3.8,4.1-2.7,0,.4-3.5,3.7-5.5-3.6-.8-4.4,0-5.6,1.6-1.2,1.5-2.9,3.7-8.4,5.4l3.9-3.4c-2.2-.4-4,.2-6,1-2,.8-4.2,1.9-7.1,2.6,1.7.1,12.4-2,8.1,2.3-1.6.5-3.6,1.5-5.8,4.1-1.1-1.7-3.4.5-6.7,2.5l-1.1-2.3c-3.2,2.8-2.3,3.7-3.8,6-4.2,2.2-6,.9-7.8,0-6.7,3.3,6.1.2-1.4,5-3,1.1-5.3,2.4-7.6,4.1-2.3,1.6-4.6,3.6-7.6,6-4.3,1.3,0-1.7-1.8-1.7-.8,1.2-1.7,2.4-2.5,3.6-.9.4-.9-.3-.9-.7-2.6,2.2.9,2.4-3.4,5.4,0,1.6-2.8,1.9-6.2,2.4-3.4.5-7.3,1.4-9.5,4.2-1.7,0,0-1.7-.8-2.4-7,5.6-6.2,4.5-11.6,10.1-2.1.3-4.2.6-6.3.9,4.9,0,.5,4.3-3.4,8.1,1.8.2,3.4.4,4.4.4-2.3,1.5-4.6,3-7,4.5-1.1,0-.6-1.1.2-2.6-.4.4-.8.8-1.1,1.1-3.1.2-2.2-1.7-.8-3.8,1.1,0,2.2.2,3.3.3,1.2-2.2,2.3-4.6,1.3-5.8-.4.5-1.2,1.1-2.2,1.7.3-.6.5-1.1.2-1.2-.4-.1-.9.7-1.9,1.8l-2.8-1.9v1.2s-10.4,2.3-10.4,2.3c-3,2.7-5.6,5.6-8.9,8.5-3.3,3-7.2,5.7-12.7,8.3,2.1-3-.5-3.4-1.2-5.8,2,.7,4.1-.4,6.4-1.8,1.2-.7,2.4-1.5,3.7-2.2,1.3-.7,2.7-1.4,4.2-1.8-3.1.9-2.9-.5-2.2-1.1-3.1,2.1-6.4,4-9.6,6-.4-2-2.7-.6-5.7-.5,3.4,3.1-6.9,5.1-10.8,7.8-.7-1.2,0-2.8,5.2-4.3-3.3-.5-4.8,1.3-6.3,3.1-1.5,1.8-2.9,3.6-6.2,3.2,1.3-.4,2-.5,2.3-1.3-2.6,2.1-10.3,3.5-8.9,1.8l1.3-.4c-2.2.6-4.9,1.2-7.7,2.1-2.9.8-5.8,1.9-8.6,2.8-5.5,2-10,4.2-10.2,6-.2-.4.1-4.3.5-5.1-2.1,2.5-4.2,5-6.3,7.5-2.1,2.5-4.3,5-6.5,7.5.4-1.6-1.2-3.8-1.9-6-.8-2.2-.7-4.3,2.6-6-2.1.1-4.8.2-8.9,2.1,1.5.1,4.5,3.4,2.6,4-6-2-4.1-.9-11.2-2.2,2.2.2.8,5.1-2.6,5.7.4-.8-1.2-4.4,0-5.1l-7.5,6.2c1.9-1.3-.4-3.8-2.5-4.7,1,.7-7.3,1.2-9.4,2l3.7.4c-9.6,1-8.3,7.9-17.9,9.3.5-.6,1-2.1.7-3.5-.3-1.4-1.2-2.5-3.7-2.5-1.8,2.6-8.2,12.3-16.6,15.2l-1.8-1.1c-2.1.8-4.2,1.6-6.4,2.3,1.9-1.9,5.4-5.2,9.2-8.3,3.8-3.1,7.8-6.2,10.6-8-3.7-.6-1.2-1.4-6.5-.6-2-1,2.7-2.2,4.2-2.5l-12.5.9c.4,1.3-1.8,2.3-4.2,3.2-2.3.9-4.7,1.7-4.3,2.8l3.3-1,3.3-1.1,6.6-2.3c.4,1.3-1.3,3.4-4.2,5.4-1.5,1-3.3,1.9-5.2,2.6-2,.6-4.2,1.1-6.4,1.2-2.4-.9,1.2-4.9.9-5.8-1,1-8.2,2.6-9.1,2l3.6-1.8c-5-.5-7.7,4.3-13.9,2.3-2.1,0-6.4-3-6.6-1.4,3.5,2.9,4.9,12.3,2.8,14.7-.8-.2-11.2-2.3-13.6-3.7-3.5-2.2,4.8-6,1.8-7.9,0,.7-1.9,1.8-2.7,2.1-2.2-.5.8-2.3-3.9-1.7-.7,2.8-9.6.3-2.1,2.4-2.3.5-3.5.5-4.8.3-1.3-.2-2.8-.5-5.5-.4,1.8,1.7-4.7,6.1-9.3,7,.3-.7-.8-1.6-1.3-2-4.8,0-8.4-.3-12-.6-3.6-.4-7-.8-11.5-.8-.8-.7-5-1.5-3.2-2.7-1.3.5-2.5,1.4-5.2,1.4-5.2-2.4,6.1-.3,2.1-3.2-.2.8-2,1.3-4.2,1.7-1.1.2-2.3.4-3.5.6-1.2.2-2.3.3-3.3.5.5,1.2,2.8,1.5,5.4,1.2,2.6-.3,5.5-1,7.5-1.4,0,1.7-1.7,3.4-4.6,4.8-1.4.7-3.2,1.4-5.2,2-2,.5-4.2.9-6.5,1.2-7.4.5-3.1-2.3-4.4-1.9-6.9-.6-9.9.7-12.7,1.8-1.4.5-2.7,1.1-4.3,1.2-1.7.1-3.7-.1-6.5-1-4.4-2.5.1-4.3-.8-5.9,3-.1,5.3.4,7.3,1,2,.6,3.8,1.2,5.9,1.2l-4.9-1.3c2-.6,6-1,8.1-.2-1.9-1.1-7.7-1.3-14.3-2.1-6.7-.6-14.2-1.3-19.4-2.7-2,.6-5.3.9-3.8,1.9,1.1,0,2.3,0,3.4,0,1.5,1-.2,1.5-1.7,1.8-1.5.3-2.8.5-.7,1.2-4.6.7-9.9,2-16.2.2l-.9-2.6c0,.7,4,1.9,5.9,1.4-2.8.8-9.3-4.5-12.6-1.6l4.2,2.2c-2.3.3-5,1-7.8,1.3-2.8.3-5.7.3-8.4-.5,2.2,2.8,1.3,0,4.9,3.4-1.5-2,2.1-1.4,5.5-.9,3.4.4,6.5.8,3.9-1.4,3.7,3.8,7,2.2,12.1,5.7,0-.8-1.7-1.8,3-.8.2-.2.8-.4,1.1-.6.1,0,.2,0,.3,0,0,0-.2,0-.3-.1.2,0,.2-.1,0,0-1.1-.5-2-1-2.3-1.5,1.3-.8,3.8-.9,6.4-1,2.5,0,5.1,0,6.4-.4,2.8.6-1.3.8.2,1.8l4-1.1c.2,1.8,7.3,3.6.5,4.1l6,.6c3.5,1.3,8.3,2.1,11.4,1.6,2.8.6,7.3-1.6,4.8-.3l9.5-.6v.5c4.7.3,9.6-.1,14.5-.3,5-.3,10.1-.2,15.4,1.5,3.2-.4,6.4-.9,11.7-.3l1,1.5c4-.6,12.2,1.3,13.9-.3,2.2,2,7.2,2.2,12.4,1.9,5.3-.5,10.8-1.5,14.4-1.3l.2-2c2.4,0,4.8-.3,7.4-.7,2.5-.4,5.2-.8,8.2-1.6l-.5-1.8c5.1-2,13.5,0,21.7-1-.5.7-2.6.8-4.1.5,2.6.8,5.1.9,7.7.6,2.5-.4,5.1-1.1,7.5-1.9,5-1.5,9.7-3.2,14.4-2.3,2.1-1,3.8-.9,5.4-.7-.2,0-.4.1-.5.2.2,0,.6,0,.9-.1,1,.1,2.1.3,3.2.4-1-.3-1.9-.5-2.7-.5,1.7-.3,4.2-1,6.7-1.9l1.4,1.7c.2,0,.4,0,.6-.2,2.6.3,1.8-1.2.3-2.4,1.2-.5,2.3-1.1,3.1-1.7,2.6,2.7,6.4-2.2,9.8.6,1.4-1.7,12.4-3.8,13-7.4.2.4,1,.5-.4.8,2.9-.2,5.7-.4,8-1.9l1.7,2.1,5.3-4.5c4,.7,5.7,1.1,2.5,3.8,8.1-5,6.9-2.8,13.7-7.5v1.6c2.7-.8,6.4-4,8.3-3.1,3.4.7,10.7-1.3,19.2-3.8,4.2-1.3,8.7-2.6,13.2-3.9,4.4-1.3,8.8-2.3,12.8-3-4.4-3.4,7.6-.5,7-4.1,1.2.7,3.5.6,1.4,2.3,3.6-1.9,6.6-2.6,9.2-3.3,2.6-.8,4.9-1.7,6.9-4.1,1.3.7-1,2.1,0,2.4.5-.4,2-1.8,3.1-1.5,1,.3-.8,1.3-1.8,2.2,7.6-3.3,7.1-6.8,6.5-9.9,4.4-.2,6.3-1.2,8.2-4.3,1.7.4,4.4.4-.2,2.8,1.4-.5,5.5-1.9,9.3-3.5,3.7-1.7,7-3.5,6.6-4.7,1.1.2,3.7-1.5,4.3-2.1,5.9-2.6,6.5-2.7,12.1-5.7l-1.8.4c.9-3.8,4.4-2.9,8.8-5.6v.3c5.7-1.6,6.7-2.5,7.7-3.3,1-.8,2-1.5,7.7-3.1l-1.5-1.4c-.5-2.1,2-2.7,5.3-3.5,3.3-.8,7.4-1.6,9.9-4l-2.7.2c.6-.8,1.7-1.1,2.9-1.3,1.3-.2,2.7-.2,4.3-.1,3,.1,6.2.4,8-.3.9-.1-.8,1.1-1.6,1.9,9.6-2.9-.2-2.7,5.7-7,1.8.5.3,3.8,4.6,1.5,1.3-.2,3.8-2.9,6.7-5.9,2.9-3,6.3-6.1,9.8-6.8-1.8,0-3.6-.2-1.2-2.6,4-3.2,13.8-4.5,15.6-9.9.7-.1,1.1,0,1.2.1,1.4-1.5,3.7-3.6,5.9-5.7,2.1-2.2,4-4.3,4.4-5.7,1.7.8,3.7.1,5.7-1.3,2-1.4,4.1-3.6,6-5.6,1.9-2.1,3.8-4.1,5.4-5.3,1.6-1.2,2.9-1.6,3.8-.4,3-2.6,6.1-5.2,9.1-7.9l.2.7c6.1-4.7,7.3-7.6,8.3-10.5,1.6-.9,1,.4,1.1.8,4.6-3.3,7.1-5.2,9-7.3,1.9-2.2,3.3-4.6,5.7-8.9l2.1.8c.6-1.3,4-3.5,8.1-6.7,4.1-3.1,8.8-7.3,11.8-12,0,.2.2.7-.2,1.5,1.8-2.6,4.1-5.1,6.7-7.4,2.5-2.3,5.4-4.5,7.8-6.7,4.9-4.4,8.7-8.4,7.3-12.5l3.9-7.4c-7.2,7.7-1.4-3.2-5.1-.7,2.4-3.4,8.5-6.9,5.6-2.7l-.8.4c1.7,3.9,9.3-9.4,11.1-7.6,3-4,6.1-7.9,9.2-11.7l18.1-22.1-26.5,12.2c-14.1,6.5-28.2,12.2-41.4,18.6l3.3,1.6-6.1,2.9c-1.9.2-3.1-1,1.2-3-3-.4-6.6,4.9-6.4,5.5-9,3.2,1.8-4.7-.9-3.5l-3.4,1.9h.9c-2.3,2.4-2,3.7-7.2,6.1-3.5,1.1-2.5-.8-3.8-.2,0-.2-.6,0-2,.9l-7.7,3.6,4.1.5c-2.9,2.7-7.2,3.5-2.5,4.1-3-.4-8.7,1.8-14.5,4.6l5.4,11.4c8-3.4,16.4-7.8,18.6-8,4.1-3.7,8.9-5.8,14.8-8.3-1.7.2-3.6-1.8,1.6-3.8.3,5.7,10.2-2.1,15.9-.4-4.7-.7,14.2-7.1,6.9-7.8.6-.2,1-.3,1.2-.3.2,0,.4,0,.6,0,.3.1.4.4.4.7.1.6.3,1.3,1.3,1.5,1.1-1.1,2.7-2,4.2-2.6,1.5-.7,3-1.1,4.3-1.4.6-.1,1.2-.3,1.9-.4l.9-.2h.2s0,.2,0,.3l-.2.7c-.5,1.9-.8,3.4-.8,4.8.4-.3,1-.9,1.6-1.5.6-.6,1.2-1,1.7-.5-1.6,2.5-3.2,4.5-4.6,6,0,.5,1.1.4,1.7.8.3.2.5.4.5.8,0,.4-.4,1-1.1,1.6.7-.3,1.7-1,1.7.2l-.3.8v.4c-.1,0-.3.6-.3.6l-.7,2.4c-.5,1.6-.9,3.2-1.4,4.8-.9,3.2-1.6,6.5-2.5,9.7-.8,3.3-1.5,6.5-2.3,9.8-.7,3.3-1.6,6.6-2.4,9.9-3.3,13.1-7.7,26.1-15.4,37.5,2.6-2.9,1.8-.6.9,2,.9-1.6,1.6.7,2.6.7-2.1,3.2-4.4,6.3-6.6,9.5,1.7,2.9-4.5,11.2-2.7,13.2l1-3.4c.4,2.8,2.6,1.9,5.1.6,2.5-1.3,5.2-3.1,6.9-2-.5-3.1,1.9-6,4.4-9.3,1.2-1.7,2.4-3.5,3.3-5.5.8-2,1.3-4.2.8-6.7,1.4-1.6.6,2,1.8,1.3-.8-2.7-.1-5.3,2.2-9.9l.2.7c1-3.4,2.1-6.3,3-8.9,1-2.7,2-5.1,2.9-7.5,2-4.9,4.2-10.1,6.7-17.7l-2.1.7c1.1-3.3,1.9-3.8,2.7-5.3-1.8-4.5-2.6,9.3-4.7,5,1.2-.9,2.2-2.7,3.1-5.1.9-2.4,1.6-5.3,2.3-8.1,1.4-5.7,2.8-11.2,5.2-12.3.5-2.6,0-2.3-.7-2.1-.3.1-.6.3-.8,0,0-.1-.1-.3-.1-.6,0-.2,0-.4,0-.6,0-.1,0-.2,0-.4,0-.2,0-.4.1-.6.5-.6,1.1-1.2,1.6-1.9-.4-.7-.8-1.4-1.2-2,.5-2.4,1.3-4.3,2.1-5.7.8-1.4,1.6-2.3,2.1-2.6-.4,1.3-.3,3.7-.5,5.1,1.3-3.6,2.2-8.9,2.6-13.2.4-4.3.6-7.7,1-9.1l-2,8.4c.5-5.3,1.3-10.8,2-16.6.2-1.5.4-2.9.6-4.4l.2-1.1v-.6c0,0,.1-.3.1-.3,0,0,0-.2,0-.1l-2,.9c-2.7,1.2-5.5,2.4-8.2,3.6-2.7,1.2-5.5,2.4-8.2,3.6-2.7,1.2-5.5,2.6-8.2,3.9-2.7,1.3-5.3,2.6-7.8,4-1.2.7-2.4,1.3-3.6,2-.6.3-1.1.7-1.7,1l-.4.2-.3.2-.5.4c.5.1.8.3,1.3.4-8.9,5.8-8.1,2.6-18.3,8l.3-.4c-1.7,1.8-4.4,3.4-7.3,4.6,2.2-2.2-5.8.4-2.8-2.2-9.6,6.3-4.6,3.6-10,9.7l-2.2-.6c-1.8,2.3-1.7,3-6.8,5.7,3.8-3.1-4.3-.6-.1-4.3-6,1-9.7,3.5-12.7,5.5l6.2,13c3.1-2.3,5.5-4.1,9.1-3.2,3.1-6.2-10.4,2.6-8,.5-2.9,0,2.7-4.8,6.3-6.1,3.5-1.6,8.2,1.8,16.9-2.6-.9.4-.8.7-1.7,1.1,3.7-.7,5.7-4.5,10.5-4.9,1.1-3.3,5.2-2.5,4.5-5.6l-7.6,4.6c4.1-3,6.7-8.4,14.9-10.5-.3.9-2.1,2.7-3.4,3.9,2.6-.3,3.9-2.6,6.6-2.9.8,3.2-9.4,5.5-13.1,10,2.9,0,8.1-6.6,7.2-2.3,1.5-5.6,8.8-3.8,13.2-9.7l.5,1.9c.8-.7,2.3-2.5,4.1-3.3l-2,3.8c3.8-4.3,10-2.9,14-6.2-9.5,4.8-3.2-1-7.8-.2,10.6-8.2,9,1.1,21.8-6.4-1.7,1.1-7.2,2.3-4.8.2,2.3-.8,5.4-1.6,7.4-1.7l-13.8-16.5c-.3.2-.6.3-.8.4-5.5,7.9,2.5,0,.9,3.9-3.8,1.2-2.1,4.3-4.1,8.1l-1.5-1.2c-7.8,7.8,1.3,4.8-6,11.6l.5-4.9-2.7,4.5-1-2.2c-2.3,5.3-3.8,6.4-7.8,10.2,1.8-.1,2.2,2.9-1,6.5-3.1,1.7-.1-2.6-4.5,2.7.1-2,.1-4.2,3.4-5.3-.3-.6.1-1.9-.2-2.6-3.3,1.8-6.1,6.5-7.8,8.4.7-.7,1.5-1.5,2.1-1.7-1.5,3.1-3.1,6.1-4.7,9.2-1.6.7-1.2-.7-.8-1.9-1.2,1.6-1.5,3.3-3.4,5.5-.6-1.6-1.9-2.6.4-6.2-1.7,2.7-3.4,5.4-5.2,8.1-.9,0-4.7,2.2-4.3.9-2.2,1.5-3.8,4.4-5.8,7.3-1.9,2.9-4.1,6-7,8,0,.5-.4,1.2-1.3,2.4-2.5,2.1-5.2,3.8-7.7,5.8-2.5,2-5.1,4.3-7.2,7.7l-5.1.8c-4.2,4.4,6.9-1.2-.1,6.2-4.9,5.4-3.6,0-6,1-1.7,3.4-4.8,9.5-11.3,12,1.4-1.8,2.9-2.6,4.4-4Zm-60.3,44.9c1-1.1,2.8-3.7,4.3-3.4-.2,2.8-1.8,2.6-4.3,3.4Zm-100.2,56.2c.8-1,2.5-1.3,4.5-1.4-1.2.7-2.7,1.2-4.5,1.4Zm-316.3,59.2c0,0,.1,0,.2,0,3.3,1,2.1.6-.2,0Zm-6.8-1.4c-.7.2-.7.5-.4.8.5-.4,2.1-.3,3.8,0-.4-.5-1.3-1-3.4-.7ZM720.2,43.1h1.4c-2.4,1.7-1.9.9-1.4,0Z" fill="#000000"/></g><g id="change1_59"><path d="m533.4,206.4c.5.1.8.4,1,.7.4-.5.3-.9-1-.7Z" fill="#000000"/></g><g id="change1_60"><path d="m717.1,81.1c0,0,.1,0,.2-.1,0-.2,0-.3,0-.4v.6Z" fill="#000000"/></g><g id="change1_61"><path d="m305.6,257.1c1.4.2,2.2.5,2.7.8,0-.5-.6-.8-2.7-.8Z" fill="#000000"/></g><g id="change1_62"><path d="m162.3,270.9h4.5c-2.2-.1-2.9-.6-3.9-1.1,0,.5.8,1.2-.6,1.1Z" fill="#000000"/></g><g id="change1_63"><path d="m126.3,253.1c-.7.1-1.3-.2-2-.1v.9c2.7.5,4.7,0,2-.8Z" fill="#000000"/></g><g id="change1_64"><path d="m159.1,264c-.1-1.7-2.9-1.5-6-1.7.2,0,.4,0,.5,0-1.2,2.1,2.1,1.9,5.5,1.6Z" fill="#000000"/></g><g id="change1_65"><path d="m152.3,262.2c-1,0-1.9-.2-2.8-.4-.5.8,1.1.4,2.8.4Z" fill="#000000"/></g><g id="change1_66"><path d="m190.4,271.9c-1.4-.5-1.1,2-1.9,1.3-1.8,1.9,10.1-1.6,1.9-1.3Z" fill="#000000"/></g><g id="change1_67"><path d="M157.4 258.3L158.2 260.5 160.1 259.2 157.4 258.3z" fill="#000000"/></g><g id="change1_68"><path d="m181.3,262.8l-4.8-1.1c0,.3-.6.5-1.4.5,3,.4,6.3,1.2,6.2.6Z" fill="#000000"/></g><g id="change1_69"><path d="m175.1,262.2c-1.6-.2-3.1-.4-4-.1.9,0,2.7.2,4,.1Z" fill="#000000"/></g><g id="change1_70"><path d="M164.1 258.6L165.5 259.2 168.9 259.8 164.1 258.6z" fill="#000000"/></g><g id="change1_71"><path d="m234,267.2l5.4-.3c.6-.7-.9-1.2-2.9-1-1.3.4-3.3.6-2.5,1.3Z" fill="#000000"/></g><g id="change1_72"><path d="m218.1,260.9c1.4.5,1.5.9,2.3,1.6l.3-2.5-2.6.8Z" fill="#000000"/></g><g id="change1_73"><path d="m233.7,261.1c.6-.7,7.8-1.6,1.1-1.8-.6.7-5.9,1-1.1,1.8Z" fill="#000000"/></g><g id="change1_74"><path d="M314.2 263.4L312.9 263.5 313.3 267.6 314.2 263.4z" fill="#000000"/></g><g id="change1_75"><path d="m383.2,245.7c-6.3.1-1.1,2.7-6.8,2.5-1.3,1.2,4.7.2,3.4,1.3,3.6-1.7,5.6-1.4,3.5-3.8Z" fill="#000000"/></g><g id="change1_76"><path d="m379.7,249.5c-.6.3-1.2.6-1.8.9,1-.4,1.5-.7,1.8-.9Z" fill="#000000"/></g><g id="change1_77"><path d="m743.2,143.6c-.8,1.1-1.5,2.2-2.4,3.3.8-.6,1.5-1.2,2.3-1.8v-1.5Z" fill="#000000"/></g><g id="change1_78"><path d="m742.9,151.9l-2.8-.2,1.2,3.2c.3-.9.8-2.6,1.6-3Z" fill="#000000"/></g><g id="change1_79"><path d="m610.3,159v.7c.9.3,1.8-.2,3.4-1.1l-3.4.4Z" fill="#000000"/></g><g id="change1_80"><path d="M656.5 130.5L655.8 131 658.5 131.9 656.5 130.5z" fill="#000000"/></g><g id="change1_81"><path d="m690.3,99.9c-1.5,1.1-2.8,2.9-4.3,4.1,2.8-2.9,6.5-2.2,4.3-4.1Z" fill="#000000"/></g></svg>